<svg xmlns="http://www.w3.org/2000/svg" xml:space="preserve" style="fill-rule:evenodd;clip-rule:evenodd;stroke-linejoin:round;stroke-miterlimit:2" viewBox="0 0 512 512"><path d="M492 128.25C492 61.882 436.886 8 369 8H123C55.114 8 0 61.882 0 128.25v240.5C0 435.118 55.114 489 123 489h246c67.886 0 123-53.882 123-120.25v-240.5Z" style="fill:#7cb9e8" transform="matrix(1.04065 0 0 1.06445 0 -8.516)"/><path d="m185.5 369.4-17.6-48.1c-.867-2.133-1.767-4.667-2.7-7.6-.933-2.933-1.867-6.1-2.8-9.5-.867 3.4-1.767 6.583-2.7 9.55-.933 2.967-1.833 5.55-2.7 7.75l-17.5 47.9h46ZM233 424h-20.8c-2.333 0-4.233-.583-5.7-1.75a10.9 10.9 0 0 1-3.3-4.35l-10.8-29.5h-59.9l-10.8 29.5c-.533 1.533-1.567 2.933-3.1 4.2-1.533 1.267-3.433 1.9-5.7 1.9h-21l56.9-144.6h27.4L233 424Zm62-71.9c4.933 0 9.233-.617 12.9-1.85s6.717-3 9.15-5.3c2.433-2.3 4.25-5.1 5.45-8.4 1.2-3.3 1.8-6.983 1.8-11.05 0-3.867-.6-7.367-1.8-10.5-1.2-3.133-3-5.8-5.4-8-2.4-2.2-5.433-3.883-9.1-5.05-3.667-1.167-8-1.75-13-1.75h-20.1v51.9H295Zm0-72.7c9.667 0 18.033 1.133 25.1 3.4s12.9 5.433 17.5 9.5 8.017 8.933 10.25 14.6c2.233 5.667 3.35 11.867 3.35 18.6 0 7-1.167 13.417-3.5 19.25s-5.833 10.85-10.5 15.05c-4.667 4.2-10.517 7.467-17.55 9.8-7.033 2.333-15.25 3.5-24.65 3.5h-20.1V424H248V279.4h47Zm123.8 72.7c4.933 0 9.233-.617 12.9-1.85s6.717-3 9.15-5.3c2.433-2.3 4.25-5.1 5.45-8.4 1.2-3.3 1.8-6.983 1.8-11.05 0-3.867-.6-7.367-1.8-10.5-1.2-3.133-3-5.8-5.4-8-2.4-2.2-5.433-3.883-9.1-5.05-3.667-1.167-8-1.75-13-1.75h-20.1v51.9h20.1Zm0-72.7c9.667 0 18.033 1.133 25.1 3.4s12.9 5.433 17.5 9.5 8.017 8.933 10.25 14.6c2.233 5.667 3.35 11.867 3.35 18.6 0 7-1.167 13.417-3.5 19.25s-5.833 10.85-10.5 15.05c-4.667 4.2-10.517 7.467-17.55 9.8-7.033 2.333-15.25 3.5-24.65 3.5h-20.1V424h-26.9V279.4h47Z" style="fill:#fff;fill-rule:nonzero" transform="matrix(.92156 0 0 .93126 -5.217 31.94)"/><path d="m908.8 913.569 41.022 126.251h132.748l-107.395 78.03 41.025 126.25-107.4-78.03-107.397 78.03 41.022-126.25-107.396-78.03h132.749L908.8 913.569Z" style="fill:#fff" transform="matrix(.57457 0 0 .58062 -266.169 -467.224)"/></svg>