<svg xmlns="http://www.w3.org/2000/svg" xml:space="preserve" style="fill-rule:evenodd;clip-rule:evenodd;stroke-linejoin:round;stroke-miterlimit:2" viewBox="0 0 1920 1920"><path d="m185.5 369.4-17.6-48.1c-.867-2.133-1.767-4.667-2.7-7.6-.933-2.933-1.867-6.1-2.8-9.5-.867 3.4-1.767 6.583-2.7 9.55-.933 2.967-1.833 5.55-2.7 7.75l-17.5 47.9h46ZM233 424h-20.8c-2.333 0-4.233-.583-5.7-1.75a10.9 10.9 0 0 1-3.3-4.35l-10.8-29.5h-59.9l-10.8 29.5c-.533 1.533-1.567 2.933-3.1 4.2-1.533 1.267-3.433 1.9-5.7 1.9h-21l56.9-144.6h27.4L233 424Zm62-71.9c4.933 0 9.233-.617 12.9-1.85s6.717-3 9.15-5.3c2.433-2.3 4.25-5.1 5.45-8.4 1.2-3.3 1.8-6.983 1.8-11.05 0-3.867-.6-7.367-1.8-10.5-1.2-3.133-3-5.8-5.4-8-2.4-2.2-5.433-3.883-9.1-5.05-3.667-1.167-8-1.75-13-1.75h-20.1v51.9H295Zm0-72.7c9.667 0 18.033 1.133 25.1 3.4s12.9 5.433 17.5 9.5 8.017 8.933 10.25 14.6c2.233 5.667 3.35 11.867 3.35 18.6 0 7-1.167 13.417-3.5 19.25s-5.833 10.85-10.5 15.05c-4.667 4.2-10.517 7.467-17.55 9.8-7.033 2.333-15.25 3.5-24.65 3.5h-20.1V424H248V279.4h47Zm123.8 72.7c4.933 0 9.233-.617 12.9-1.85s6.717-3 9.15-5.3c2.433-2.3 4.25-5.1 5.45-8.4 1.2-3.3 1.8-6.983 1.8-11.05 0-3.867-.6-7.367-1.8-10.5-1.2-3.133-3-5.8-5.4-8-2.4-2.2-5.433-3.883-9.1-5.05-3.667-1.167-8-1.75-13-1.75h-20.1v51.9h20.1Zm0-72.7c9.667 0 18.033 1.133 25.1 3.4s12.9 5.433 17.5 9.5 8.017 8.933 10.25 14.6c2.233 5.667 3.35 11.867 3.35 18.6 0 7-1.167 13.417-3.5 19.25s-5.833 10.85-10.5 15.05c-4.667 4.2-10.517 7.467-17.55 9.8-7.033 2.333-15.25 3.5-24.65 3.5h-20.1V424h-26.9V279.4h47Z" style="fill:#fff;fill-rule:nonzero" transform="translate(505.369 593.041) scale(1.60392)"/><path d="M233 430.235h-20.8c-3.941 0-7.103-1.134-9.565-3.093a17.14 17.14 0 0 1-5.188-6.838 5.878 5.878 0 0 1-.102-.261l-9.302-25.408h-51.186l-9.287 25.367c-.88 2.498-2.497 4.837-4.998 6.904-2.61 2.157-5.813 3.329-9.672 3.329h-21a6.234 6.234 0 0 1-5.802-8.518l56.9-144.6a6.236 6.236 0 0 1 5.802-3.952h27.4a6.233 6.233 0 0 1 5.803 3.956l56.8 144.6a6.233 6.233 0 0 1-5.803 8.514Zm0-6.235-56.8-144.6h-27.4L91.9 424h21c2.267 0 4.167-.633 5.7-1.9 1.533-1.267 2.567-2.667 3.1-4.2l10.8-29.5h59.9l10.8 29.5a10.9 10.9 0 0 0 3.3 4.35c1.467 1.167 3.367 1.75 5.7 1.75H233Zm-47.5-54.6h-46l17.5-47.9c.867-2.2 1.767-4.783 2.7-7.75.933-2.967 1.833-6.15 2.7-9.55.933 3.4 1.867 6.567 2.8 9.5.933 2.933 1.833 5.467 2.7 7.6l17.6 48.1Zm-23.013-44.75-14.071 38.515h28.164l-14.093-38.515ZM295 273.165c10.403 0 19.4 1.259 27.004 3.698 7.976 2.559 14.534 6.176 19.726 10.766 5.351 4.731 9.323 10.393 11.921 16.985 2.508 6.365 3.784 13.324 3.784 20.886 0 7.844-1.332 15.029-3.946 21.565-2.693 6.732-6.732 12.522-12.118 17.369-5.26 4.734-11.832 8.454-19.758 11.084-7.595 2.519-16.462 3.817-26.613 3.817h-13.865V424a6.236 6.236 0 0 1-6.235 6.235H248a6.236 6.236 0 0 1-6.235-6.235V279.4a6.236 6.236 0 0 1 6.235-6.235h47Zm0 6.235h-47V424h26.9v-50.9H295c9.4 0 17.617-1.167 24.65-3.5 7.033-2.333 12.883-5.6 17.55-9.8 4.667-4.2 8.167-9.217 10.5-15.05s3.5-12.25 3.5-19.25c0-6.733-1.117-12.933-3.35-18.6-2.233-5.667-5.65-10.533-10.25-14.6s-10.433-7.233-17.5-9.5c-7.067-2.267-15.433-3.4-25.1-3.4Zm0 72.7h-20.1v-51.9H295c5 0 9.333.583 13 1.75s6.7 2.85 9.1 5.05c2.4 2.2 4.2 4.867 5.4 8 1.2 3.133 1.8 6.633 1.8 10.5 0 4.067-.6 7.75-1.8 11.05-1.2 3.3-3.017 6.1-5.45 8.4-2.433 2.3-5.483 4.067-9.15 5.3-3.667 1.233-7.967 1.85-12.9 1.85Zm0-6.235c4.171 0 7.812-.482 10.913-1.525 2.738-.92 5.037-2.203 6.854-3.921 1.735-1.64 3.018-3.646 3.874-6 .968-2.662 1.424-5.638 1.424-8.919 0-3.044-.443-5.804-1.387-8.27-.845-2.204-2.102-4.086-3.791-5.634-1.781-1.633-4.056-2.839-6.778-3.705-3.132-.997-6.838-1.456-11.109-1.456h-13.865v39.43H295Zm123.8-72.7c10.403 0 19.4 1.259 27.004 3.698 7.976 2.559 14.534 6.176 19.726 10.766 5.351 4.731 9.323 10.393 11.921 16.985 2.508 6.365 3.784 13.324 3.784 20.886 0 7.844-1.332 15.029-3.946 21.565-2.693 6.732-6.732 12.522-12.118 17.369-5.26 4.734-11.832 8.454-19.758 11.084-7.595 2.519-16.462 3.817-26.613 3.817h-13.865V424a6.236 6.236 0 0 1-6.235 6.235h-26.9a6.236 6.236 0 0 1-6.235-6.235V279.4a6.236 6.236 0 0 1 6.235-6.235h47Zm0 6.235h-47V424h26.9v-50.9h20.1c9.4 0 17.617-1.167 24.65-3.5 7.033-2.333 12.883-5.6 17.55-9.8 4.667-4.2 8.167-9.217 10.5-15.05s3.5-12.25 3.5-19.25c0-6.733-1.117-12.933-3.35-18.6-2.233-5.667-5.65-10.533-10.25-14.6s-10.433-7.233-17.5-9.5c-7.067-2.267-15.433-3.4-25.1-3.4Zm0 72.7h-20.1v-51.9h20.1c5 0 9.333.583 13 1.75s6.7 2.85 9.1 5.05c2.4 2.2 4.2 4.867 5.4 8 1.2 3.133 1.8 6.633 1.8 10.5 0 4.067-.6 7.75-1.8 11.05-1.2 3.3-3.017 6.1-5.45 8.4-2.433 2.3-5.483 4.067-9.15 5.3-3.667 1.233-7.967 1.85-12.9 1.85Zm0-6.235c4.171 0 7.812-.482 10.913-1.525 2.738-.92 5.037-2.203 6.854-3.921 1.735-1.64 3.018-3.646 3.874-6 .968-2.662 1.424-5.638 1.424-8.919 0-3.044-.443-5.804-1.387-8.27-.845-2.204-2.102-4.086-3.791-5.634-1.781-1.633-4.056-2.839-6.778-3.705-3.132-.997-6.838-1.456-11.109-1.456h-13.865v39.43H418.8Z" style="fill:#7cb9e8" transform="translate(505.369 593.041) scale(1.60392)"/><path d="m908.8 913.569 41.022 126.251h132.748l-107.395 78.03 41.025 126.25-107.4-78.03-107.397 78.03 41.022-126.25-107.396-78.03h132.749L908.8 913.569Z" style="fill:#fff" transform="translate(51.2 -266.672)"/><path d="m918.311 910.478 38.776 119.342h125.483c4.33 0 8.17 2.79 9.51 6.91 1.34 4.12-.13 8.63-3.63 11.18l-101.52 73.76 38.78 119.34a9.995 9.995 0 0 1-3.64 11.18 9.98 9.98 0 0 1-11.75 0l-101.52-73.76-101.519 73.76a9.988 9.988 0 0 1-11.755 0 10 10 0 0 1-3.633-11.18l38.777-119.34-101.519-73.76a10.001 10.001 0 0 1 5.878-18.09h125.484l38.776-119.342a10 10 0 0 1 19.022 0Zm-9.511 3.091-41.022 126.251H735.029l107.396 78.03-41.022 126.25 107.397-78.03 107.4 78.03-41.025-126.25 107.395-78.03H949.822L908.8 913.569Z" style="fill:#7cb9e8" transform="translate(51.2 -266.672)"/></svg>